#!OML:ASF E:\emotionWalksFemale\Project 1\Capture day 1\Session 1\Female1.ASF
:FULLY-SPECIFIED
:DEGREES
331
root 9.69509 15.6338 10.5638 13.9683 -82.1917 -11.7383
lowerback 9.19175 2.52598 0.374012
upperback -4.94472 3.40133 -0.233785
thorax -10.4326 1.58936 -1.07187
lowerneck -6.15908 -6.81713 -11.5228
upperneck 5.09396 -8.70766 8.5833
head 3.4 -4.24787 3.99655
rclavicle 1.50331e-014 7.55382e-015
rhumerus -46.2664 10.1398 -89.0737
rradius 40.7736
rwrist 17.7635
rhand 0.999911 -54.8851
rfingers 7.12502
rthumb 26.5478 -443.045
lclavicle 1.50331e-014 7.55382e-015
lhumerus -49.6732 1.66546 77.2367
lradius 33.3743
lwrist -15.9483
lhand 17.3878 -29.7817
lfingers 7.12502
lthumb 42.0943 -5.22328
rfemur -5.38248 20.1573 26.2163
rtibia 18.3376
rfoot -14.1367 -27.2744
rtoes -4.4144
lfemur -7.5214 -15.4719 -25.3832
ltibia 22.2937
lfoot -21.2775 21.3814
ltoes -28.4272
332
root 9.70522 15.6325 10.545 14.7218 -82.1596 -12.4152
lowerback 9.12327 2.64858 0.714856
upperback -4.90544 3.60998 -0.261876
thorax -10.3214 1.66714 -1.32411
lowerneck -5.99992 -6.88155 -11.6385
upperneck 4.71473 -8.78484 8.63143
head 3.27503 -4.28808 4.03351
rclavicle 6.28408e-014 1.35174e-014
rhumerus -45.9296 9.77045 -89.1088
rradius 40.1475
rwrist 18.2574
rhand 0.195005 -55.3481
rfingers 7.12502
rthumb 25.7771 -443.622
lclavicle 6.28408e-014 1.35174e-014
lhumerus -49.2153 1.98201 77.0446
lradius 32.9227
lwrist -16.8688
lhand 15.6549 -30.4604
lfingers 7.12502
lthumb 40.4677 -5.3772
rfemur -5.27745 21.0242 26.4096
rtibia 18.0206
rfoot -14.1138 -28.0921
rtoes -4.3873
lfemur -7.75714 -15.3744 -25.162
ltibia 22.4674
lfoot -21.1874 21.3093
ltoes -29.048
333
root 9.71455 15.6326 10.526 16.0184 -82.1174 -13.5725
lowerback 8.8936 2.7099 1.05666
upperback -4.86077 3.73442 -0.273878
thorax -10.1093 1.70755 -1.53442
lowerneck -5.88879 -6.93526 -11.4207
upperneck 4.31425 -8.8562 8.48263
head 3.12711 -4.32488 3.95764
rclavicle -1.24862e-014 9.93923e-016
rhumerus -45.4578 9.38018 -89.2299
rradius 39.3114
rwrist 19.0596
rhand -0.664969 -56.145
rfingers 7.12502
rthumb 24.9533 -444.536
lclavicle -1.24862e-014 9.93923e-016
lhumerus -48.7607 2.74988 76.5872
lradius 32.4736
lwrist -18.1336
lhand 14.136 -31.1125
lfingers 7.12502
lthumb 39.0378 -5.60334
rfemur -5.22713 21.2777 26.6029
rtibia 17.5656
rfoot -13.9949 -28.3675
rtoes -4.20649
lfemur -8.11498 -15.4552 -24.857
ltibia 22.7465
lfoot -21.22 21.3542
ltoes -29.0287
334
root 9.72501 15.6349 10.5078 16.6216 -82.0952 -14.2053
lowerback 8.86658 2.71291 1.27491
upperback -4.77046 3.76644 -0.281936
thorax -9.97764 1.71144 -1.66523
lowerneck -6.08634 -6.98084 -10.9779
upperneck 4.22016 -8.90522 8.14619
head 3.1001 -4.34756 3.77727
rclavicle 5.31997e-014 6.36111e-015
rhumerus -44.8083 8.95883 -89.3085
rradius 38.1726
rwrist 20.1565
rhand -1.46843 -56.2103
rfingers 7.12502
rthumb 24.1831 -444.706
lclavicle 5.31997e-014 6.36111e-015
lhumerus -48.317 3.79295 75.9347
lradius 32.0088
lwrist -19.671
lhand 12.6542 -31.8274
lfingers 7.12502
lthumb 37.6392 -5.93089
rfemur -4.98305 21.2716 26.7478
rtibia 17.0697
rfoot -14.0812 -28.3793
rtoes -2.97776
lfemur -8.29039 -15.5854 -24.7011
ltibia 23.0483
lfoot -21.2602 21.4783
ltoes -29.1073
335
root 9.73587 15.6396 10.4899 16.2762 -81.9796 -13.8994
lowerback 8.95802 2.72218 1.43296
upperback -4.7561 3.79682 -0.334767
thorax -10.0012 1.71311 -1.81968
lowerneck -6.19173 -7.05351 -10.8336
upperneck 4.27289 -9.00404 8.0996
head 3.13378 -4.39359 3.72932
rclavicle -2.23509e-014 -9.93923e-016
rhumerus -44.3595 8.40646 -89.2414
rradius 37.1229
rwrist 21.3013
rhand -2.07135 -55.8454
rfingers 7.12502
rthumb 23.605 -444.417
lclavicle -2.23509e-014 -9.93923e-016
lhumerus -47.9364 4.51353 75.4483
lradius 31.513
lwrist -21.0773
lhand 11.0715 -32.313
lfingers 7.12502
lthumb 36.1419 -6.03143
rfemur -4.75606 21.0701 26.7584
rtibia 16.6268
rfoot -14.6656 -28.1116
rtoes -0.940071
lfemur -8.43042 -15.7333 -24.6492
ltibia 23.2641
lfoot -21.2793 21.5493
ltoes -29.3632
336
root 9.74343 15.6397 10.4737 16.1942 -81.8262 -13.8629
lowerback 9.05602 2.77048 1.6026
upperback -4.81961 3.88649 -0.336027
thorax -10.1154 1.74169 -1.93916
lowerneck -6.01827 -7.11548 -10.9234
upperneck 4.32417 -9.10854 8.2071
head 3.14017 -4.44762 3.77364
rclavicle 1.206e-013 9.74045e-015
rhumerus -44.1336 7.66424 -88.9874
rradius 36.2238
rwrist 22.6072
rhand -2.30116 -55.4536
rfingers 7.12502
rthumb 23.3845 -444.053
lclavicle 1.206e-013 9.74045e-015
lhumerus -47.7355 4.9922 75.2767
lradius 31.0784
lwrist -22.2834
lhand 9.35939 -32.2867
lfingers 7.12502
lthumb 34.5185 -5.61954
rfemur -4.57788 20.9952 26.8354
rtibia 16.3354
rfoot -15.1705 -27.9148
rtoes -0.147439
lfemur -8.47411 -15.9812 -24.5704
ltibia 23.3359
lfoot -21.2172 21.8521
ltoes -30.2738
337
root 9.74497 15.6403 10.4612 15.986 -81.7708 -13.6303
lowerback 8.92858 2.79985 1.64736
upperback -4.86105 3.93162 -0.309012
thorax -10.0828 1.76182 -1.93672
lowerneck -5.9481 -7.12907 -10.9728
upperneck 4.50711 -9.13673 8.17179
head 3.18692 -4.4659 3.76823
rclavicle -8.7838e-015 -6.75868e-015
rhumerus -43.9232 7.10884 -88.8183
rradius 35.4485
rwrist 23.9737
rhand -2.43859 -55.0403
rfingers 7.12502
rthumb 23.2527 -443.656
lclavicle -8.7838e-015 -6.75868e-015
lhumerus -47.6975 5.92737 74.9054
lradius 30.8925
lwrist -24.0088
lhand 8.06844 -32.2245
lfingers 7.12502
lthumb 33.2921 -5.28635
rfemur -4.50759 20.9738 26.8513
rtibia 16.1638
rfoot -15.2042 -27.8808
rtoes -1.84628
lfemur -8.47796 -16.4356 -24.5824
ltibia 23.2926
lfoot -20.8355 22.675
ltoes -32.5636
338
root 9.74658 15.6405 10.4527 14.5136 -81.6114 -12.2996
lowerback 8.97728 2.72444 1.63068
upperback -4.83168 3.82911 -0.307569
thorax -10.0844 1.71377 -1.91031
lowerneck -6.01853 -7.13589 -11.0705
upperneck 4.77784 -9.14028 8.12962
head 3.28256 -4.47032 3.76395
rclavicle 4.18317e-014 3.37934e-015
rhumerus -43.7803 6.70896 -88.6872
rradius 34.8708
rwrist 25.3986
rhand -2.43735 -54.8212
rfingers 7.12502
rthumb 23.2539 -443.437
lclavicle 4.18317e-014 3.37934e-015
lhumerus -47.7005 7.30293 74.2808
lradius 30.8459
lwrist -26.1032
lhand 7.71557 -32.1812
lfingers 7.12502
lthumb 32.9566 -5.17179
rfemur -4.25878 20.4922 26.7564
rtibia 16.0018
rfoot -15.2473 -27.6509
rtoes -3.63867
lfemur -8.26326 -17.0788 -24.7859
ltibia 23.2228
lfoot -20.7927 23.2337
ltoes -33.0366
339
root 9.74612 15.6457 10.4396 13.6603 -81.3602 -11.3335
lowerback 8.77918 2.63614 1.61046
upperback -4.90826 3.70503 -0.285995
thorax -10.0588 1.65582 -1.84611
lowerneck -5.98509 -7.1441 -11.3286
upperneck 5.00812 -9.15646 8.28582
head 3.36743 -4.47979 3.84845
rclavicle -1.3828e-014 -1.39149e-015
rhumerus -43.751 6.24239 -88.4998
rradius 34.4543
rwrist 26.8555
rhand -2.12459 -54.5726
rfingers 7.12502
rthumb 23.5539 -443.15
lclavicle -1.3828e-014 -1.39149e-015
lhumerus -47.7906 8.47735 73.8625
lradius 30.908
lwrist -27.4529
lhand 7.82592 -31.925
lfingers 7.12502
lthumb 33.0615 -4.93782
rfemur -4.2667 20.0204 26.6438
rtibia 15.7793
rfoot -15.1956 -27.4125
rtoes -4.96304
lfemur -8.33579 -17.5686 -24.7561
ltibia 23.1382
lfoot -21.5543 22.8491
ltoes -30.0361
340
root 9.74575 15.6511 10.4272 13.0211 -81.0246 -10.6777
lowerback 8.66897 2.521 1.71724
upperback -4.95695 3.55947 -0.307602
thorax -10.0448 1.57713 -1.89973
lowerneck -6.11871 -7.15795 -11.3369
upperneck 5.40649 -9.17938 8.26441
head 3.51092 -4.4912 3.83151
rclavicle 6.39838e-015 3.97569e-016
rhumerus -43.7152 5.82026 -88.467
rradius 34.1709
rwrist 28.0633
rhand -1.68608 -54.254
rfingers 7.12502
rthumb 23.9745 -442.777
lclavicle 6.39838e-015 3.97569e-016
lhumerus -47.9612 9.19941 73.6656
lradius 31.2728
lwrist -27.8518
lhand 8.03509 -31.5254
lfingers 7.12502
lthumb 33.2604 -4.58045
rfemur -4.14661 19.6322 26.6319
rtibia 15.5679
rfoot -15.3143 -27.3008
rtoes -5.28469
lfemur -8.32373 -18.1105 -24.6833
ltibia 23.0591
lfoot -22.288 22.2221
ltoes -26.5294
341
root 9.73945 15.6574 10.4085 12.7732 -80.9893 -10.4286
lowerback 8.48566 2.53432 1.63544
upperback -4.97663 3.56193 -0.312867
thorax -9.96188 1.58522 -1.85053
lowerneck -6.3952 -7.218 -11.0633
upperneck 5.91246 -9.25856 7.9785
head 3.69005 -4.53156 3.67914
rclavicle 9.69075e-015 9.14409e-015
rhumerus -43.7924 5.63672 -88.5827
rradius 34.1741
rwrist 28.6537
rhand -1.3451 -54.2909
rfingers 7.12502
rthumb 24.3014 -442.771
lclavicle 9.69075e-015 9.14409e-015
lhumerus -48.1238 9.61398 73.658
lradius 31.7753
lwrist -27.7445
lhand 8.50621 -31.0853
lfingers 7.12502
lthumb 33.7082 -4.23724
rfemur -3.89228 20.2577 26.683
rtibia 15.2693
rfoot -15.6518 -27.7335
rtoes -4.08842
lfemur -8.2623 -18.6163 -24.6378
ltibia 23.0433
lfoot -22.5383 22.2047
ltoes -25.0615
342
root 9.73361 15.6544 10.3916 12.2785 -80.9197 -10.0493
lowerback 8.43807 2.53515 1.52521
upperback -4.99017 3.55002 -0.287798
thorax -9.95721 1.58784 -1.75816
lowerneck -6.38318 -7.29504 -10.9212
upperneck 6.1591 -9.37938 7.8442
head 3.76089 -4.59506 3.60365
rclavicle -1.33807e-014 7.95139e-016
rhumerus -44.0306 5.71022 -88.738
rradius 34.3584
rwrist 28.6011
rhand -1.12124 -54.2147
rfingers 7.12502
rthumb 24.516 -442.665
lclavicle -1.33807e-014 7.95139e-016
lhumerus -48.1936 9.55631 74.0834
lradius 32.0582
lwrist -26.6257
lhand 9.16036 -30.5865
lfingers 7.12502
lthumb 34.3295 -3.87647
rfemur -3.42398 21.6389 26.8243
rtibia 14.9617
rfoot -15.7214 -28.7805
rtoes -3.46177
lfemur -8.06246 -19.1248 -24.6984
ltibia 23.0634
lfoot -22.3892 22.6177
ltoes -25.8015
343
root 9.72848 15.6539 10.3768 12.1923 -80.7853 -9.91364
lowerback 8.24403 2.50661 1.47917
upperback -5.04298 3.50568 -0.239586
thorax -9.90759 1.57178 -1.66493
lowerneck -6.3331 -7.32225 -11.016
upperneck 6.29819 -9.4283 7.93048
head 3.80818 -4.62008 3.64078
rclavicle -1.47349e-014 -9.74045e-015
rhumerus -44.2105 5.76639 -88.8326
rradius 34.536
rwrist 28.2793
rhand -0.88983 -53.7836
rfingers 7.12502
rthumb 24.7378 -442.204
lclavicle -1.47349e-014 -9.74045e-015
lhumerus -48.1263 9.46443 74.5929
lradius 32.2047
lwrist -25.2438
lhand 8.94443 -30.2211
lfingers 7.12502
lthumb 34.1245 -3.4651
rfemur -3.30242 22.1252 26.9077
rtibia 14.8037
rfoot -15.274 -29.2352
rtoes -4.56805
lfemur -8.04259 -19.6317 -24.634
ltibia 23.0121
lfoot -22.4732 22.7112
ltoes -25.2678
344
root 9.7271 15.6545 10.3655 11.5367 -80.4092 -9.27606
lowerback 8.15835 2.39983 1.54187
upperback -5.02292 3.36808 -0.239569
thorax -9.83551 1.50265 -1.67237
lowerneck -6.54084 -7.35911 -11.2448
upperneck 6.54849 -9.46561 8.13254
head 3.94274 -4.63218 3.72471
rclavicle -2.96065e-014 -7.15625e-015
rhumerus -44.2121 5.61086 -88.9008
rradius 34.6618
rwrist 27.8879
rhand -0.710338 -53.6548
rfingers 7.12502
rthumb 24.9098 -442.052
lclavicle -2.96065e-014 -7.15625e-015
lhumerus -48.0027 9.66714 74.9034
lradius 32.4542
lwrist -24.444
lhand 6.15435 -30.5557
lfingers 7.12502
lthumb 31.4704 -3.24498
rfemur -3.22126 21.6205 26.8919
rtibia 14.7701
rfoot -15.5751 -28.9524
rtoes -3.77596
lfemur -8.0082 -20.0864 -24.605
ltibia 22.9563
lfoot -22.6588 22.2991
ltoes -23.2954
